<svg
             xmlns="http://www.w3.org/2000/svg"
              width="1013"
              height="1013"
              viewBox="0 0 1013 1013"
              fill="none"
            >
              <path
                d="M918.031 506.5C918.031 615.645 874.674 720.319 797.497 797.497C720.319 874.674 615.645 918.031 506.5 918.031C397.355 918.031 292.681 874.674 215.503 797.497C138.326 720.319 94.9688 615.645 94.9688 506.5C94.9688 397.355 138.326 292.681 215.503 215.503C292.681 138.326 397.355 94.9688 506.5 94.9688C615.645 94.9688 720.319 138.326 797.497 215.503C874.674 292.681 918.031 397.355 918.031 506.5ZM506.5 0C372.168 0 243.338 53.3632 148.35 148.35C53.3632 243.338 0 372.168 0 506.5C0 640.832 53.3632 769.662 148.35 864.65C243.338 959.637 372.168 1013 506.5 1013C640.832 1013 769.662 959.637 864.65 864.65C959.637 769.662 1013 640.832 1013 506.5C1013 372.168 959.637 243.338 864.65 148.35C769.662 53.3632 640.832 0 506.5 0ZM317.354 490.672C329.948 490.672 342.025 485.669 350.93 476.764C359.835 467.859 364.838 455.781 364.838 443.188C364.838 430.594 359.835 418.516 350.93 409.611C342.025 400.706 329.948 395.703 317.354 395.703C304.76 395.703 292.682 400.706 283.777 409.611C274.872 418.516 269.87 430.594 269.87 443.188C269.87 455.781 274.872 467.859 283.777 476.764C292.682 485.669 304.76 490.672 317.354 490.672ZM744.713 443.188C744.713 430.594 739.711 418.516 730.805 409.611C721.9 400.706 709.823 395.703 697.229 395.703C684.635 395.703 672.557 400.706 663.652 409.611C654.747 418.516 649.745 430.594 649.745 443.188C649.745 455.781 654.747 467.859 663.652 476.764C672.557 485.669 684.635 490.672 697.229 490.672C709.823 490.672 721.9 485.669 730.805 476.764C739.711 467.859 744.713 455.781 744.713 443.188ZM379.875 664.781C353.561 664.781 332.391 685.951 332.391 712.266C332.391 738.58 353.561 759.75 379.875 759.75H633.125C659.439 759.75 680.609 738.58 680.609 712.266C680.609 685.951 659.439 664.781 633.125 664.781H379.875ZM316.562 348.219C329.034 348.219 341.383 350.675 352.905 355.448C364.428 360.22 374.897 367.216 383.716 376.034C392.534 384.853 399.53 395.322 404.302 406.845C409.075 418.367 411.531 430.716 411.531 443.188C411.531 455.659 409.075 468.008 404.302 479.53C399.53 491.053 392.534 501.522 383.716 510.341C374.897 519.159 364.428 526.155 352.905 530.927C341.383 535.7 329.034 538.156 316.562 538.156C304.091 538.156 291.742 535.7 280.22 530.927C268.697 526.155 258.228 519.159 249.409 510.341C240.591 501.522 233.595 491.053 228.823 479.53C224.05 468.008 221.594 455.659 221.594 443.188C221.594 430.716 224.05 418.367 228.823 406.845C233.595 395.322 240.591 384.853 249.409 376.034C258.228 367.216 268.697 360.22 280.22 355.448C291.742 350.675 304.091 348.219 316.562 348.219ZM316.562 601.469C358.541 601.469 398.801 584.793 428.484 555.109C458.168 525.426 474.844 485.166 474.844 443.188C474.844 401.209 458.168 360.949 428.484 331.266C398.801 301.582 358.541 284.906 316.562 284.906C274.584 284.906 234.324 301.582 204.641 331.266C174.957 360.949 158.281 401.209 158.281 443.188C158.281 485.166 174.957 525.426 204.641 555.109C234.324 584.793 274.584 601.469 316.562 601.469ZM601.469 443.188C601.469 430.716 603.925 418.367 608.698 406.845C613.47 395.322 620.466 384.853 629.284 376.034C638.103 367.216 648.572 360.22 660.095 355.448C671.617 350.675 683.966 348.219 696.438 348.219C708.909 348.219 721.258 350.675 732.78 355.448C744.303 360.22 754.772 367.216 763.591 376.034C772.409 384.853 779.405 395.322 784.177 406.845C788.95 418.367 791.406 430.716 791.406 443.188C791.406 455.659 788.95 468.008 784.177 479.53C779.405 491.053 772.409 501.522 763.591 510.341C754.772 519.159 744.303 526.155 732.78 530.927C721.258 535.7 708.909 538.156 696.438 538.156C683.966 538.156 671.617 535.7 660.095 530.927C648.572 526.155 638.103 519.159 629.284 510.341C620.466 501.522 613.47 491.053 608.698 479.53C603.925 468.008 601.469 455.659 601.469 443.188ZM854.719 443.188C854.719 401.209 838.043 360.949 808.359 331.266C778.676 301.582 738.416 284.906 696.438 284.906C654.459 284.906 614.199 301.582 584.516 331.266C554.832 360.949 538.156 401.209 538.156 443.188C538.156 485.166 554.832 525.426 584.516 555.109C614.199 584.793 654.459 601.469 696.438 601.469C738.416 601.469 778.676 584.793 808.359 555.109C838.043 525.426 854.719 485.166 854.719 443.188Z"
                fill="black"
              />
            </svg>