<svg xmlns="http://www.w3.org/2000/svg" width="94" height="84" viewBox="0 0 94 84" fill="none">
  <path fill-rule="evenodd" clip-rule="evenodd" d="M66.116 0.0171474C65.9753 0.022701 65.556 0.0538309 65.1842 0.0863125C64.8124 0.118758 64.1712 0.192636 63.7592 0.250402C63.3472 0.308204 62.7799 0.397793 62.4986 0.449493C62.2172 0.501194 61.724 0.602292 61.4024 0.674198C61.0809 0.746067 60.5301 0.883447 60.1784 0.979467C59.8267 1.07545 59.2759 1.23983 58.9543 1.34473C58.6328 1.44963 58.123 1.63056 57.8216 1.74682C57.5201 1.86305 57.0762 2.04416 56.835 2.14925C56.5939 2.25436 56.1233 2.47706 55.7893 2.64414C55.4552 2.81123 54.9619 3.07419 54.6931 3.22852C54.4242 3.38285 53.9658 3.66543 53.6744 3.85642C53.383 4.04743 52.9304 4.36315 52.6687 4.55804C52.4069 4.75297 51.9877 5.08341 51.7369 5.29244C51.4862 5.50143 50.9952 5.95238 50.6458 6.29448C50.2964 6.63661 49.8407 7.10915 49.6332 7.34456C49.4256 7.57997 49.126 7.93551 48.9673 8.13468C48.8086 8.33384 48.5186 8.72245 48.3227 8.99824C48.1269 9.27406 47.8233 9.72412 47.6481 9.99845C47.4729 10.2727 47.1943 10.7396 47.0291 11.036C46.763 11.513 46.7314 11.5894 46.7526 11.7024C46.7657 11.7727 46.7912 11.8211 46.8091 11.81C46.8269 11.799 46.8416 11.8238 46.8416 11.8652C46.8416 11.9065 46.858 11.9404 46.8781 11.9404C46.8982 11.9404 46.9147 11.9651 46.9147 11.9952C46.9147 12.0254 46.9298 12.05 46.9483 12.05C46.9668 12.05 46.9928 12.0993 47.006 12.1596C47.0193 12.2199 47.0452 12.2692 47.0637 12.2692C47.0822 12.2692 47.0974 12.2866 47.0974 12.3077C47.0974 12.3289 47.1385 12.4067 47.1887 12.4806C47.239 12.5546 47.2801 12.6441 47.2801 12.6796C47.2801 12.7151 47.2965 12.7442 47.3166 12.7442C47.3367 12.7442 47.3531 12.7689 47.3531 12.799C47.3531 12.8292 47.3689 12.8538 47.388 12.8538C47.4072 12.8538 47.4337 12.9112 47.4468 12.9814C47.46 13.0515 47.4854 13.0999 47.5033 13.0888C47.5212 13.0778 47.5358 13.1026 47.5358 13.144C47.5358 13.1853 47.5523 13.2192 47.5724 13.2192C47.5925 13.2192 47.6089 13.2439 47.6089 13.274C47.6089 13.3042 47.6254 13.3288 47.6455 13.3288C47.6656 13.3288 47.682 13.3452 47.682 13.3651C47.682 13.3851 47.7105 13.4673 47.7454 13.5478C47.7803 13.6283 47.8214 13.6942 47.8368 13.6942C47.8521 13.6942 47.8647 13.7105 47.8647 13.7305C47.8647 13.7504 47.8932 13.8326 47.9281 13.9132C47.963 13.9937 48.0034 14.0596 48.0178 14.0596C48.0323 14.0596 48.0549 14.1171 48.0681 14.1875C48.0813 14.2578 48.1067 14.3153 48.1245 14.3153C48.1424 14.3153 48.157 14.34 48.157 14.3701C48.157 14.4003 48.1727 14.4249 48.1919 14.4249C48.2111 14.4249 48.2376 14.4825 48.2508 14.5528C48.264 14.6232 48.2853 14.6809 48.2981 14.6811C48.3109 14.6814 48.3486 14.743 48.3818 14.8181C48.415 14.8933 48.4663 15.0123 48.4957 15.0826C48.5251 15.1529 48.5718 15.2639 48.5995 15.3292C48.6272 15.3946 48.6615 15.448 48.6758 15.448C48.6901 15.448 48.7126 15.5055 48.7258 15.5759C48.739 15.6462 48.7626 15.7037 48.7783 15.7037C48.794 15.7037 48.8177 15.749 48.8311 15.8042C48.8444 15.8595 48.8749 15.9499 48.8988 16.0052C48.9226 16.0604 48.9538 16.1057 48.9681 16.1057C48.9824 16.1057 49.0049 16.1632 49.0181 16.2335C49.0313 16.3039 49.0554 16.3614 49.0717 16.3614C49.0879 16.3614 49.1123 16.4118 49.1258 16.4735C49.1394 16.5351 49.1735 16.6297 49.2016 16.6836C49.2297 16.7375 49.2528 16.8104 49.253 16.8455C49.2531 16.8807 49.2683 16.9095 49.2868 16.9095C49.3053 16.9095 49.3315 16.9599 49.3451 17.0215C49.3586 17.0832 49.3927 17.1777 49.4208 17.2316C49.449 17.2856 49.472 17.3584 49.4722 17.3936C49.4723 17.4287 49.4875 17.4575 49.5061 17.4575C49.5246 17.4575 49.5508 17.508 49.5643 17.5696C49.5778 17.6312 49.6119 17.7258 49.6401 17.7797C49.6682 17.8336 49.6913 17.9065 49.6914 17.9417C49.6915 17.9768 49.705 18.0056 49.7213 18.0056C49.7376 18.0056 49.7725 18.0899 49.7989 18.1929C49.8253 18.2959 49.8694 18.4233 49.897 18.4761C49.9245 18.5288 49.9471 18.5997 49.9472 18.6337C49.9473 18.6677 49.9622 18.7046 49.9803 18.7158C49.9984 18.727 50.0334 18.8225 50.0581 18.9281C50.0829 19.0336 50.1162 19.1366 50.1322 19.157C50.1482 19.1774 50.1813 19.276 50.2058 19.3762C50.2302 19.4764 50.2631 19.5751 50.2788 19.5954C50.2945 19.6158 50.3274 19.7145 50.3519 19.8147C50.3764 19.9149 50.4093 20.0135 50.425 20.0339C50.4407 20.0543 50.4736 20.1529 50.4981 20.2531C50.5225 20.3533 50.5541 20.4518 50.5681 20.4719C50.5822 20.492 50.6218 20.6153 50.6561 20.7459C50.6904 20.8765 50.7336 21.0163 50.7521 21.0565C50.7706 21.0967 50.8278 21.3022 50.8792 21.5132C50.9305 21.7242 50.9878 21.9297 51.0063 21.9699C51.0249 22.0101 51.0897 22.2485 51.1504 22.4997C51.2111 22.7509 51.3494 23.3428 51.4577 23.815C51.566 24.2873 51.6826 24.8216 51.7169 25.0025C51.7511 25.1834 51.8097 25.4957 51.847 25.6967C51.8844 25.8977 51.9339 26.1936 51.9571 26.3544C51.9803 26.5151 52.0155 26.7289 52.0353 26.8294C52.055 26.9298 52.095 27.2011 52.1242 27.4322C52.1533 27.6633 52.2181 28.2059 52.2681 28.638C52.3181 29.07 52.3834 29.7523 52.4133 30.1543C52.4431 30.5562 52.4841 31.2878 52.5044 31.7802C52.5246 32.2725 52.5412 33.0617 52.5412 33.534C52.5412 34.0062 52.5246 34.7954 52.5044 35.2877C52.4841 35.7801 52.443 36.5117 52.4131 36.9137C52.3831 37.3156 52.3177 37.9979 52.2677 38.43C52.2176 38.862 52.153 39.4046 52.1239 39.6357C52.0949 39.8668 52.055 40.1381 52.0353 40.2386C52.0155 40.339 51.9803 40.5528 51.9571 40.7135C51.9339 40.8743 51.8827 41.1785 51.8434 41.3895C51.8041 41.6005 51.7468 41.9047 51.716 42.0654C51.6852 42.2262 51.5781 42.7194 51.4779 43.1615C51.3777 43.6036 51.2383 44.2038 51.1681 44.4951C51.0979 44.7865 51.0252 45.0578 51.0065 45.098C50.9879 45.1382 50.9305 45.3437 50.8792 45.5547C50.8278 45.7657 50.7706 45.9713 50.7521 46.0114C50.7336 46.0516 50.6904 46.1914 50.6561 46.322C50.6218 46.4526 50.5824 46.576 50.5686 46.596C50.5547 46.6161 50.5219 46.7148 50.4955 46.8153C50.4692 46.9157 50.4361 47.0144 50.422 47.0345C50.408 47.0546 50.3764 47.153 50.3519 47.2532C50.3274 47.3534 50.2945 47.4521 50.2788 47.4725C50.2631 47.4928 50.2302 47.5915 50.2058 47.6917C50.1813 47.7919 50.1486 47.8905 50.1331 47.9109C50.1176 47.9313 50.0835 48.0301 50.0573 48.1306C50.0311 48.2311 49.9957 48.3289 49.9786 48.348C49.9615 48.3671 49.9473 48.4082 49.9472 48.4394C49.9471 48.4705 49.9245 48.5391 49.897 48.5919C49.8694 48.6446 49.8253 48.772 49.7989 48.875C49.7725 48.978 49.7376 49.0623 49.7213 49.0623C49.705 49.0623 49.6915 49.0911 49.6914 49.1263C49.6913 49.1614 49.6682 49.2343 49.6401 49.2882C49.6119 49.3421 49.5778 49.4367 49.5643 49.4983C49.5508 49.56 49.5246 49.6104 49.5061 49.6104C49.4875 49.6104 49.4723 49.6391 49.4722 49.6743C49.472 49.7095 49.449 49.7824 49.4208 49.8363C49.3927 49.8902 49.3586 49.9847 49.3451 50.0464C49.3315 50.108 49.3053 50.1584 49.2868 50.1584C49.2683 50.1584 49.2531 50.1872 49.253 50.2224C49.2528 50.2576 49.2297 50.3304 49.2016 50.3843C49.1735 50.4382 49.1394 50.5328 49.1258 50.5944C49.1123 50.6561 49.0868 50.7065 49.0692 50.7065C49.0516 50.7065 49.0265 50.764 49.0133 50.8344C49.0001 50.9047 48.9787 50.9623 48.9657 50.9623C48.9528 50.9623 48.9226 51.0075 48.8988 51.0627C48.8749 51.118 48.8444 51.2084 48.8311 51.2637C48.8177 51.3189 48.794 51.3642 48.7783 51.3642C48.7626 51.3642 48.739 51.4217 48.7258 51.492C48.7126 51.5624 48.6901 51.6199 48.6758 51.6199C48.6615 51.6199 48.627 51.6733 48.5992 51.7387C48.5714 51.804 48.5204 51.9232 48.4859 52.0036C48.4514 52.084 48.4004 52.2031 48.3725 52.2685C48.3447 52.3338 48.3113 52.3872 48.2983 52.3872C48.2854 52.3872 48.264 52.4448 48.2508 52.5151C48.2376 52.5854 48.2111 52.643 48.1919 52.643C48.1727 52.643 48.157 52.6676 48.157 52.6978C48.157 52.7279 48.1424 52.7526 48.1245 52.7526C48.1067 52.7526 48.0813 52.8101 48.0681 52.8805C48.0549 52.9508 48.0323 53.0083 48.0178 53.0083C48.0034 53.0083 47.963 53.0742 47.9281 53.1547C47.8932 53.2353 47.8647 53.3175 47.8647 53.3374C47.8647 53.3574 47.8521 53.3737 47.8368 53.3737C47.8214 53.3737 47.7803 53.4396 47.7454 53.5201C47.7105 53.6006 47.682 53.6829 47.682 53.7028C47.682 53.7228 47.6656 53.7391 47.6455 53.7391C47.6254 53.7391 47.6089 53.7638 47.6089 53.7939C47.6089 53.824 47.5925 53.8487 47.5724 53.8487C47.5523 53.8487 47.5358 53.8734 47.5358 53.9035C47.5358 53.9337 47.5212 53.9583 47.5034 53.9583C47.4855 53.9583 47.4601 54.0159 47.4469 54.0862C47.4337 54.1565 47.4072 54.2141 47.388 54.2141C47.3689 54.2141 47.3531 54.2387 47.3531 54.2689C47.3531 54.299 47.3367 54.3237 47.3166 54.3237C47.2965 54.3237 47.2801 54.3527 47.2801 54.3881C47.2801 54.4235 47.2233 54.5369 47.1539 54.6399C47.0845 54.743 47.0169 54.8702 47.0038 54.9226C46.9906 54.975 46.9652 55.0179 46.9473 55.0179C46.9293 55.0179 46.9147 55.0426 46.9147 55.0727C46.9147 55.1028 46.8982 55.1275 46.8781 55.1275C46.858 55.1275 46.8416 55.1522 46.8416 55.1823C46.8416 55.2125 46.8272 55.2371 46.8096 55.2371C46.7921 55.2371 46.7685 55.2823 46.7573 55.3376C46.7462 55.3929 46.703 55.4744 46.6614 55.5187C46.6198 55.5631 46.5858 55.6166 46.5858 55.6375C46.5858 55.6584 46.5714 55.6756 46.5539 55.6756C46.5363 55.6756 46.5127 55.7208 46.5016 55.776C46.4904 55.8313 46.4472 55.9128 46.4057 55.9572C46.3641 56.0016 46.3301 56.055 46.3301 56.0759C46.3301 56.0969 46.3157 56.114 46.2981 56.114C46.2805 56.114 46.257 56.1592 46.2458 56.2145C46.2346 56.2698 46.1914 56.3513 46.1499 56.3956C46.1083 56.44 46.0743 56.4935 46.0743 56.5144C46.0743 56.5353 46.0589 56.5525 46.0402 56.5525C46.0214 56.5525 45.9946 56.5894 45.9804 56.6347C45.9662 56.6799 45.9046 56.7909 45.8433 56.8813C45.7821 56.9717 45.7208 57.0539 45.7071 57.064C45.6934 57.074 45.6701 57.121 45.6553 57.1684C45.6405 57.2157 45.6013 57.2874 45.5682 57.3277C45.535 57.368 45.4874 57.4226 45.4622 57.4491C45.4371 57.4756 45.4166 57.5148 45.4166 57.5364C45.4166 57.5579 45.4014 57.5755 45.3829 57.5755C45.3644 57.5755 45.3392 57.6217 45.3268 57.678C45.3144 57.7344 45.272 57.8038 45.2325 57.8323C45.1931 57.8607 45.1608 57.905 45.1608 57.9307C45.1608 57.9564 45.1462 57.9774 45.1284 57.9774C45.1106 57.9774 45.068 58.0366 45.0337 58.1088C44.9994 58.1812 44.9441 58.273 44.9108 58.3129C44.8775 58.3528 44.8131 58.4293 44.7678 58.4829C44.7224 58.5364 44.6756 58.6108 44.6636 58.6481C44.6516 58.6854 44.6147 58.7492 44.5816 58.7898C44.5485 58.8303 44.4863 58.8998 44.4435 58.9442C44.4007 58.9886 44.3535 59.0632 44.3387 59.1101C44.3238 59.1569 44.2766 59.2312 44.2338 59.2751C44.191 59.319 44.119 59.402 44.0738 59.4597C44.0286 59.5172 43.9916 59.5774 43.9916 59.5933C43.9916 59.6092 43.9516 59.6673 43.9028 59.7224C43.854 59.7775 43.78 59.862 43.7384 59.9104C43.6968 59.9587 43.6627 60.012 43.6627 60.029C43.6627 60.046 43.5968 60.1298 43.5162 60.2153C43.4356 60.3007 43.3595 60.4028 43.3469 60.4421C43.3344 60.4814 43.2605 60.5746 43.1828 60.6493C43.1051 60.724 43.0415 60.8015 43.0415 60.8215C43.0415 60.8415 42.9758 60.9263 42.8954 61.01C42.815 61.0937 42.7492 61.1785 42.7492 61.1985C42.7492 61.2186 42.6835 61.2981 42.6031 61.3754C42.5227 61.4526 42.4569 61.5301 42.4569 61.5476C42.4569 61.5651 42.3911 61.6398 42.3108 61.7137C42.2304 61.7876 42.1642 61.8692 42.1638 61.8949C42.1634 61.9207 42.1058 61.9909 42.0359 62.051C41.966 62.1111 41.9088 62.1733 41.9088 62.1892C41.9088 62.2052 41.8554 62.2746 41.7901 62.3436C41.7248 62.4126 41.6097 62.5349 41.5343 62.6154C41.459 62.6958 41.3972 62.7745 41.3972 62.7901C41.3971 62.8058 41.3478 62.8515 41.2877 62.8917C41.2275 62.9319 41.1782 62.9794 41.1782 62.9973C41.1781 63.0153 41.1328 63.0744 41.0776 63.1287C41.0223 63.183 40.9529 63.2629 40.9233 63.3063C40.8936 63.3497 40.8402 63.3945 40.8045 63.4058C40.7688 63.4171 40.7396 63.4475 40.7396 63.4733C40.7396 63.499 40.6902 63.5579 40.63 63.6042C40.5697 63.6504 40.5203 63.7093 40.5203 63.735C40.5203 63.7608 40.4875 63.7924 40.4473 63.8051C40.4071 63.8179 40.3742 63.8424 40.3742 63.8597C40.3742 63.877 40.1616 64.106 39.9018 64.3687C39.642 64.6315 39.4145 64.8464 39.3962 64.8464C39.3778 64.8464 39.3441 64.8875 39.3212 64.9378C39.2983 64.988 39.2545 65.0291 39.224 65.0291C39.1934 65.0291 39.1684 65.0448 39.1684 65.064C39.1684 65.0832 39.1266 65.1407 39.0754 65.1919C39.0242 65.243 38.9678 65.2849 38.95 65.2849C38.9321 65.2849 38.9071 65.3178 38.8943 65.358C38.8816 65.3981 38.8501 65.431 38.8243 65.431C38.7985 65.431 38.7396 65.4804 38.6934 65.5406C38.6472 65.6009 38.5872 65.6503 38.56 65.6503C38.5329 65.6503 38.5107 65.6642 38.5107 65.6812C38.5107 65.6982 38.48 65.7476 38.4425 65.7908C38.4049 65.8341 38.3629 65.8695 38.349 65.8695C38.3351 65.8695 38.2574 65.9312 38.1763 66.0065C38.0952 66.0819 37.9834 66.1887 37.9278 66.244C37.8722 66.2992 37.8141 66.3445 37.7985 66.3445C37.7829 66.3445 37.7395 66.3799 37.702 66.4231C37.6644 66.4664 37.6337 66.5146 37.6337 66.5303C37.6337 66.5459 37.5967 66.5704 37.5515 66.5847C37.5063 66.599 37.4406 66.6437 37.4054 66.6841C37.3702 66.7245 37.3414 66.7704 37.3414 66.7861C37.3414 66.8017 37.3063 66.8257 37.2632 66.8394C37.2202 66.853 37.1296 66.9158 37.0619 66.9788C36.9942 67.0419 36.8654 67.1634 36.7757 67.2488C36.686 67.3342 36.5971 67.404 36.5781 67.404C36.5591 67.404 36.4751 67.4698 36.3914 67.5502C36.3077 67.6306 36.2238 67.6963 36.2048 67.6963C36.1858 67.6963 36.0963 67.7703 36.0058 67.8608C35.9154 67.9512 35.8208 68.0252 35.7956 68.0252C35.7704 68.0252 35.7262 68.0581 35.6972 68.0983C35.6682 68.1384 35.6271 68.1713 35.6058 68.1713C35.5846 68.1713 35.5435 68.2042 35.5145 68.2444C35.4855 68.2846 35.4413 68.3175 35.4163 68.3175C35.3912 68.3175 35.3132 68.375 35.2429 68.4454C35.1726 68.5157 35.098 68.5732 35.0772 68.5732C35.0565 68.5732 35.0395 68.5886 35.0395 68.6073C35.0395 68.6261 35.0028 68.653 34.958 68.6673C34.9132 68.6815 34.8326 68.7401 34.7789 68.7976C34.7252 68.855 34.6632 68.9021 34.6412 68.9021C34.6191 68.9021 34.601 68.9185 34.601 68.9386C34.601 68.9587 34.5771 68.9752 34.5478 68.9752C34.5186 68.9752 34.4536 69.0163 34.4034 69.0665C34.3531 69.1167 34.3009 69.1578 34.2872 69.1578C34.2736 69.1578 34.2359 69.1884 34.2034 69.2257C34.1709 69.263 34.1032 69.3065 34.0529 69.3223C34.0027 69.338 33.935 69.3815 33.9025 69.4188C33.87 69.4561 33.8308 69.4867 33.8154 69.4867C33.8 69.4867 33.7609 69.5172 33.7283 69.5545C33.6959 69.5918 33.6282 69.6353 33.5779 69.6511C33.5277 69.6669 33.46 69.7104 33.4275 69.7477C33.395 69.785 33.3558 69.8155 33.3404 69.8155C33.325 69.8155 33.2859 69.8458 33.2533 69.8827C33.2209 69.9197 33.1491 69.9611 33.0938 69.9748C33.0385 69.9884 32.9933 70.0157 32.9933 70.0354C32.9933 70.0552 32.9722 70.0713 32.9466 70.0713C32.9208 70.0713 32.8761 70.1041 32.8471 70.1443C32.8182 70.1845 32.7734 70.2174 32.7477 70.2174C32.722 70.2174 32.701 70.2325 32.701 70.2511C32.701 70.2696 32.6548 70.2948 32.5984 70.3072C32.5421 70.3196 32.4727 70.362 32.4442 70.4015C32.4158 70.4409 32.3715 70.4732 32.3458 70.4732C32.3201 70.4732 32.299 70.4883 32.299 70.5068C32.299 70.5253 32.2497 70.5513 32.1894 70.5645C32.1291 70.5778 32.0798 70.6037 32.0798 70.6222C32.0798 70.6407 32.0551 70.6559 32.025 70.6559C31.9949 70.6559 31.9702 70.6723 31.9702 70.6924C31.9702 70.7125 31.9491 70.7289 31.9235 70.7289C31.8977 70.7289 31.8534 70.7612 31.825 70.8007C31.7966 70.8401 31.7272 70.8825 31.6708 70.8949C31.6144 70.9073 31.5683 70.9326 31.5683 70.951C31.5683 70.9696 31.5436 70.9847 31.5135 70.9847C31.4833 70.9847 31.4586 71.0011 31.4586 71.0212C31.4586 71.0413 31.434 71.0578 31.4038 71.0578C31.3737 71.0578 31.3489 71.0701 31.3487 71.0852C31.3485 71.1002 31.2745 71.145 31.1843 71.1847C31.094 71.2244 31.0202 71.2696 31.0202 71.2852C31.0202 71.3008 30.9955 71.3135 30.9654 71.3135C30.9352 71.3135 30.9106 71.3263 30.9106 71.3419C30.9106 71.3575 30.8367 71.4027 30.7465 71.4424C30.6562 71.482 30.5823 71.5268 30.582 71.5419C30.5819 71.5569 30.557 71.5693 30.5269 71.5693C30.4968 71.5693 30.4721 71.5857 30.4721 71.6058C30.4721 71.6259 30.4474 71.6424 30.4173 71.6424C30.3871 71.6424 30.3625 71.657 30.3625 71.6749C30.3625 71.6927 30.3049 71.7181 30.2346 71.7313C30.1642 71.7445 30.1067 71.771 30.1067 71.7902C30.1067 71.8093 30.082 71.8251 30.0519 71.8251C30.0217 71.8251 29.9971 71.8402 29.9971 71.8587C29.9971 71.8772 29.9477 71.9032 29.8874 71.9164C29.7821 71.9395 29.81 71.9652 30.5725 72.5463C31.0096 72.8794 31.9714 73.5929 32.7098 74.1318C33.4482 74.6707 34.6778 75.548 35.4422 76.0813C36.2067 76.6146 37.5746 77.5461 38.482 78.1513C39.3895 78.7564 40.8318 79.6983 41.6872 80.2443C42.5426 80.7904 43.9207 81.653 44.7496 82.1613C45.8249 82.8207 46.2971 83.0909 46.3977 83.1044C46.4753 83.1148 46.573 83.105 46.6149 83.0826C46.6709 83.0526 46.6977 83.0526 46.7162 83.0826C46.7316 83.1075 46.8092 83.117 46.9149 83.1068C47.0572 83.0931 47.2216 83.0093 47.8327 82.6386C48.2422 82.3903 49.0115 81.9177 49.5423 81.5884C50.0732 81.2591 50.9035 80.7385 51.3875 80.4315C51.8716 80.1244 52.6787 79.606 53.1811 79.2794C53.6835 78.9529 54.6865 78.2876 55.41 77.8011C56.1335 77.3146 57.1118 76.6477 57.5841 76.319C58.0564 75.9904 58.9032 75.3926 59.4659 74.9906C60.0286 74.5886 60.8342 74.0051 61.2563 73.6939C61.6783 73.3826 62.3935 72.8477 62.8457 72.5051C63.2979 72.1625 64.0049 71.6199 64.4169 71.2993C64.8289 70.9787 65.5852 70.3794 66.0977 69.9675C66.6102 69.5555 67.3747 68.9301 67.7968 68.5777C68.2188 68.2252 68.9094 67.6405 69.3314 67.2784C69.7534 66.9162 70.4682 66.2907 70.9197 65.8884C71.3713 65.4861 71.9714 64.9446 72.2534 64.685C72.5354 64.4254 73.1771 63.8228 73.6796 63.3459C74.182 62.8691 75.1031 61.9634 75.7266 61.3334C76.35 60.7034 77.1229 59.9084 77.4441 59.5668C77.7653 59.2252 78.2524 58.699 78.5266 58.3976C78.8007 58.0962 79.2842 57.5536 79.601 57.1919C79.9178 56.8301 80.5073 56.1379 80.911 55.6535C81.3148 55.1692 81.8766 54.4786 82.1594 54.119C82.4424 53.7593 82.8798 53.1938 83.1315 52.8622C83.3832 52.5306 83.8025 51.9634 84.0633 51.6017C84.3241 51.2399 84.7562 50.6236 85.0237 50.232C85.2912 49.8404 85.6858 49.2485 85.9007 48.9166C86.1157 48.5848 86.4481 48.0584 86.6395 47.747C86.8309 47.4355 87.127 46.9422 87.2976 46.6509C87.4681 46.3595 87.7774 45.8169 87.9849 45.4451C88.1924 45.0734 88.6111 44.2759 88.9153 43.6731C89.2194 43.0702 89.5939 42.2974 89.7474 41.9558C89.9008 41.6142 90.1319 41.088 90.2608 40.7866C90.3897 40.4852 90.639 39.8687 90.8147 39.4167C90.9904 38.9647 91.2877 38.1344 91.4754 37.5716C91.663 37.0088 91.9094 36.2197 92.023 35.8182C92.1365 35.4166 92.301 34.7918 92.3884 34.4298C92.4758 34.0677 92.5968 33.5323 92.6574 33.2401C92.7179 32.9479 92.8171 32.4217 92.8778 32.0709C92.9385 31.7201 93.0205 31.2029 93.0601 30.9215C93.0997 30.6402 93.1572 30.1716 93.1879 29.8802C93.2185 29.5888 93.2648 29.112 93.2906 28.8206C93.3208 28.4806 93.3375 27.6758 93.3373 26.5736C93.3372 25.496 93.3199 24.659 93.2909 24.3266C93.2655 24.0352 93.2197 23.5748 93.1892 23.3035C93.1587 23.0322 93.0922 22.539 93.0415 22.2074C92.9908 21.8758 92.8998 21.3497 92.8394 21.0382C92.7789 20.7267 92.6811 20.2754 92.622 20.0352C92.5629 19.7951 92.456 19.384 92.3845 19.1218C92.313 18.8595 92.1637 18.3573 92.0526 18.0056C91.9416 17.6539 91.7274 17.0459 91.5767 16.6544C91.4259 16.263 91.1958 15.704 91.0652 15.4122C90.9347 15.1204 90.675 14.5775 90.4882 14.2057C90.3013 13.834 89.9852 13.2503 89.7856 12.9086C89.586 12.567 89.2646 12.0456 89.0713 11.75C88.8781 11.4543 88.5357 10.9611 88.3105 10.6539C88.0853 10.3466 87.7278 9.88153 87.516 9.62029C87.3042 9.35904 86.9986 8.99732 86.8368 8.81646C86.675 8.6356 86.2793 8.21722 85.9574 7.8867C85.6354 7.55615 85.1748 7.10363 84.9336 6.88108C84.6924 6.65853 84.2567 6.27814 83.9653 6.03572C83.6739 5.79333 83.2053 5.42295 82.9239 5.21264C82.6426 5.00233 82.1986 4.68468 81.9374 4.50671C81.6761 4.32873 81.2075 4.02697 80.896 3.8361C80.5845 3.64523 80.0748 3.34993 79.7633 3.17985C79.4518 3.00977 78.9257 2.73991 78.5941 2.58013C78.2625 2.42039 77.7363 2.18198 77.4248 2.05034C77.1133 1.9187 76.5789 1.70806 76.2373 1.58222C75.8957 1.45639 75.3776 1.27816 75.0862 1.18616C74.7947 1.09412 74.2757 0.944391 73.9327 0.853377C73.5897 0.762362 73.0061 0.623521 72.6357 0.544856C72.2653 0.466154 71.6909 0.35921 71.3593 0.307181C71.0277 0.255151 70.5427 0.187484 70.2814 0.15683C70.0202 0.126175 69.4529 0.0769224 69.0208 0.0474368C68.5855 0.017732 67.8198 -0.00324043 67.3035 0.000413306C66.791 0.0040305 66.2566 0.0115572 66.116 0.0171474Z" fill="#2D017E"/>
  <path fill-rule="evenodd" clip-rule="evenodd" d="M24.4159 0.0295067C24.1697 0.0465697 23.7011 0.0876376 23.3746 0.120777C23.048 0.153916 22.5178 0.221255 22.1962 0.27047C21.8747 0.319649 21.3567 0.410152 21.0452 0.471608C20.7337 0.533064 20.1829 0.657035 19.8212 0.747172C19.4594 0.837273 18.8997 0.990401 18.5774 1.08744C18.2551 1.18452 17.7299 1.35691 17.4103 1.47057C17.0906 1.58424 16.5719 1.78216 16.2574 1.91037C15.943 2.03858 15.4323 2.26073 15.1226 2.40403C14.8129 2.54737 14.3211 2.78902 14.0297 2.94105C13.7383 3.09312 13.2451 3.36642 12.9336 3.54841C12.6221 3.73041 12.111 4.04649 11.7978 4.25088C11.4846 4.45527 11.0078 4.78367 10.7381 4.98068C10.4685 5.17769 10.0506 5.49556 9.80947 5.68705C9.56831 5.87854 9.12436 6.25112 8.82291 6.51499C8.52146 6.77886 7.96775 7.30189 7.59238 7.67731C7.21705 8.0527 6.67343 8.63521 6.38433 8.97183C6.09523 9.30841 5.68651 9.80579 5.47604 10.0771C5.26558 10.3484 4.94374 10.7841 4.7609 11.0453C4.57802 11.3066 4.27836 11.755 4.09497 12.0418C3.91158 12.3287 3.62314 12.8074 3.45397 13.1056C3.28479 13.4039 2.99098 13.9584 2.80105 14.3379C2.61112 14.7174 2.34526 15.2827 2.21029 15.5942C2.07531 15.9057 1.8617 16.4318 1.73561 16.7634C1.60951 17.095 1.41173 17.6622 1.29608 18.0239C1.18047 18.3857 1.00757 18.9776 0.91187 19.3393C0.816175 19.701 0.670566 20.3176 0.588244 20.7094C0.505958 21.1013 0.389288 21.7425 0.328999 22.1344C0.268709 22.5263 0.193439 23.0853 0.161686 23.3767C0.129934 23.668 0.0806428 24.26 0.0521423 24.692C0.0236418 25.1241 0.000183686 25.9297 9.90922e-07 26.4823C-0.000145165 27.035 0.0158955 27.8077 0.0356631 28.1996C0.0554308 28.5914 0.0971584 29.1751 0.128399 29.4967C0.15964 29.8182 0.218468 30.3361 0.259136 30.6476C0.299804 30.9591 0.380482 31.5016 0.438433 31.8533C0.496384 32.205 0.602969 32.7804 0.67528 33.1321C0.747627 33.4838 0.887462 34.1004 0.986008 34.5023C1.08459 34.9042 1.25691 35.5514 1.36894 35.9404C1.48097 36.3295 1.70133 37.0365 1.85867 37.5115C2.01601 37.9866 2.25603 38.6712 2.39211 39.0329C2.52814 39.3946 2.78318 40.0358 2.95886 40.4579C3.13451 40.8799 3.39693 41.4882 3.54203 41.8097C3.68709 42.1313 4.02489 42.8383 4.29269 43.3808C4.56048 43.9234 4.95518 44.688 5.16981 45.0798C5.3844 45.4717 5.76587 46.1458 6.01751 46.5779C6.26912 47.0099 6.66502 47.6676 6.89723 48.0393C7.12947 48.4111 7.56571 49.0852 7.86665 49.5374C8.16758 49.9895 8.58709 50.6061 8.79891 50.9075C9.01072 51.209 9.41313 51.768 9.6932 52.1498C9.97323 52.5316 10.4773 53.1975 10.8133 53.6296C11.1494 54.0616 11.6596 54.7028 11.9471 55.0545C12.2347 55.4062 12.644 55.8994 12.8566 56.1506C13.0693 56.4018 13.481 56.8786 13.7715 57.2102C14.0621 57.5418 14.6214 58.1658 15.0143 58.5968C15.4073 59.0279 16.2322 59.8993 16.8475 60.5333C17.4628 61.1673 18.4247 62.1305 18.9851 62.6737C19.5454 63.2168 20.4314 64.0562 20.9539 64.5388C21.4764 65.0214 22.3814 65.8366 22.9651 66.3503C23.5487 66.864 24.5517 67.7254 25.194 68.2646C25.8362 68.8039 26.9618 69.7237 27.6953 70.3088C28.4289 70.8938 29.1983 71.5001 29.4052 71.6561C29.7343 71.9044 29.7948 71.9369 29.8893 71.9161C29.9487 71.9031 29.9973 71.8773 29.9973 71.8588C29.9973 71.8403 30.022 71.8251 30.0521 71.8251C30.0823 71.8251 30.1069 71.8094 30.1069 71.7902C30.1069 71.771 30.1645 71.7446 30.2348 71.7314C30.3052 71.7182 30.3627 71.6928 30.3627 71.6749C30.3627 71.6571 30.3874 71.6424 30.4175 71.6424C30.4477 71.6424 30.4723 71.626 30.4723 71.6059C30.4723 71.5858 30.497 71.5694 30.5271 71.5694C30.5573 71.5694 30.5821 71.557 30.5823 71.542C30.5825 71.5269 30.6565 71.4821 30.7467 71.4424C30.8369 71.4028 30.9108 71.3576 30.9108 71.342C30.9108 71.3264 30.9355 71.3136 30.9656 71.3136C30.9957 71.3136 31.0204 71.3008 31.0204 71.2852C31.0204 71.2697 31.0943 71.2245 31.1845 71.1848C31.2747 71.1451 31.3487 71.1003 31.3489 71.0852C31.3491 71.0702 31.3739 71.0578 31.4041 71.0578C31.4342 71.0578 31.4589 71.0414 31.4589 71.0213C31.4589 71.0012 31.4835 70.9848 31.5137 70.9848C31.5438 70.9848 31.5685 70.9696 31.5685 70.9511C31.5685 70.9326 31.6146 70.9074 31.671 70.895C31.7274 70.8826 31.7968 70.8402 31.8253 70.8007C31.8537 70.7613 31.898 70.729 31.9237 70.729C31.9494 70.729 31.9704 70.7126 31.9704 70.6925C31.9704 70.6724 31.9951 70.6559 32.0252 70.6559C32.0554 70.6559 32.08 70.6408 32.08 70.6223C32.08 70.6038 32.1294 70.5778 32.1897 70.5646C32.2499 70.5514 32.2993 70.5254 32.2993 70.5069C32.2993 70.4884 32.3203 70.4732 32.346 70.4732C32.3717 70.4732 32.416 70.441 32.4444 70.4015C32.4729 70.3621 32.5423 70.3196 32.5987 70.3073C32.6551 70.2949 32.7012 70.2696 32.7012 70.2511C32.7012 70.2326 32.7222 70.2175 32.7479 70.2175C32.7737 70.2175 32.8184 70.1846 32.8474 70.1444C32.8763 70.1042 32.9211 70.0713 32.9468 70.0713C32.9725 70.0713 32.9935 70.0552 32.9935 70.0355C32.9935 70.0158 33.0387 69.9885 33.094 69.9748C33.1493 69.9612 33.2211 69.9198 33.2536 69.8828C33.2861 69.8458 33.3253 69.8156 33.3406 69.8156C33.356 69.8156 33.3952 69.785 33.4277 69.7477C33.4602 69.7104 33.5279 69.6669 33.5781 69.6512C33.6284 69.6354 33.6961 69.5919 33.7286 69.5546C33.7611 69.5173 33.8003 69.4867 33.8156 69.4867C33.831 69.4867 33.8702 69.4562 33.9027 69.4189C33.9352 69.3816 34.0029 69.3381 34.0532 69.3223C34.1034 69.3065 34.1711 69.2631 34.2036 69.2258C34.2361 69.1885 34.2738 69.1579 34.2875 69.1579C34.3011 69.1579 34.3534 69.1168 34.4036 69.0666C34.4538 69.0163 34.5188 68.9752 34.5481 68.9752C34.5773 68.9752 34.6012 68.9588 34.6012 68.9387C34.6012 68.9186 34.6193 68.9021 34.6414 68.9021C34.6635 68.9021 34.7255 68.8551 34.7791 68.7976C34.8328 68.7402 34.9134 68.6815 34.9582 68.6673C35.0031 68.6531 35.0397 68.6261 35.0397 68.6074C35.0397 68.5887 35.0567 68.5733 35.0774 68.5733C35.0982 68.5733 35.1728 68.5158 35.2431 68.4454C35.3135 68.3751 35.3915 68.3175 35.4165 68.3175C35.4416 68.3175 35.4857 68.2847 35.5147 68.2445C35.5437 68.2043 35.5848 68.1714 35.6061 68.1714C35.6273 68.1714 35.6684 68.1385 35.6974 68.0983C35.7264 68.0581 35.7707 68.0252 35.7958 68.0252C35.8211 68.0252 35.9156 67.9513 36.0061 67.8608C36.0965 67.7704 36.186 67.6964 36.205 67.6964C36.224 67.6964 36.308 67.6306 36.3917 67.5503C36.4753 67.4699 36.5593 67.4041 36.5783 67.4041C36.5973 67.4041 36.6862 67.3343 36.7759 67.2488C36.8657 67.1634 36.9945 67.042 37.0621 66.9789C37.1298 66.9158 37.2204 66.8531 37.2634 66.8394C37.3065 66.8258 37.3417 66.8018 37.3417 66.7861C37.3417 66.7704 37.3704 66.7246 37.4056 66.6842C37.4408 66.6438 37.5066 66.5991 37.5518 66.5848C37.597 66.5705 37.634 66.546 37.634 66.5304C37.634 66.5147 37.6647 66.4665 37.7022 66.4232C37.7397 66.3799 37.7818 66.3445 37.7957 66.3445C37.8096 66.3445 37.8873 66.2829 37.9684 66.2075C38.0495 66.1322 38.1613 66.0253 38.2169 65.97C38.2724 65.9147 38.3306 65.8695 38.3462 65.8695C38.3617 65.8695 38.4052 65.8341 38.4427 65.7909C38.4802 65.7476 38.5109 65.6983 38.5109 65.6813C38.5109 65.6642 38.5331 65.6503 38.5602 65.6503C38.5874 65.6503 38.6474 65.601 38.6936 65.5407C38.7398 65.4804 38.7987 65.4311 38.8245 65.4311C38.8503 65.4311 38.8818 65.3982 38.8946 65.358C38.9073 65.3178 38.9324 65.285 38.9502 65.285C38.968 65.285 39.0245 65.2431 39.0756 65.192C39.1268 65.1408 39.1686 65.0833 39.1686 65.0641C39.1686 65.0449 39.1937 65.0292 39.2242 65.0292C39.2548 65.0292 39.2985 64.9881 39.3214 64.9378C39.3443 64.8876 39.3781 64.8465 39.3964 64.8465C39.4148 64.8465 39.6423 64.6316 39.9021 64.3688C40.1619 64.1061 40.3744 63.877 40.3744 63.8597C40.3744 63.8425 40.4073 63.8179 40.4475 63.8052C40.4877 63.7924 40.5206 63.7609 40.5206 63.7351C40.5206 63.7094 40.5699 63.6505 40.6302 63.6042C40.6905 63.558 40.7398 63.4991 40.7398 63.4734C40.7398 63.4476 40.769 63.4172 40.8047 63.4059C40.8404 63.3945 40.8939 63.3498 40.9235 63.3064C40.9531 63.263 41.0225 63.1831 41.0778 63.1288C41.1331 63.0744 41.1783 63.0153 41.1784 62.9974C41.1784 62.9795 41.2277 62.9319 41.2879 62.8918C41.3481 62.8516 41.3974 62.8059 41.3974 62.7902C41.3975 62.7746 41.4592 62.6959 41.5345 62.6154C41.6099 62.535 41.725 62.4127 41.7903 62.3437C41.8556 62.2747 41.9091 62.2052 41.9091 62.1893C41.9091 62.1734 41.9662 62.1111 42.0361 62.051C42.1061 61.991 42.1636 61.9207 42.164 61.895C42.1645 61.8692 42.2306 61.7877 42.311 61.7138C42.3914 61.6399 42.4571 61.5651 42.4571 61.5477C42.4571 61.5302 42.5229 61.4527 42.6033 61.3755C42.6837 61.2982 42.7495 61.2186 42.7495 61.1986C42.7495 61.1786 42.8152 61.0938 42.8956 61.0101C42.976 60.9264 43.0418 60.8416 43.0418 60.8216C43.0418 60.8015 43.1053 60.724 43.1831 60.6494C43.2608 60.5747 43.3346 60.4815 43.3472 60.4422C43.3597 60.4028 43.4358 60.3008 43.5164 60.2153C43.597 60.1299 43.6629 60.0461 43.6629 60.0291C43.6629 60.0121 43.697 59.9587 43.7386 59.9104C43.7802 59.8621 43.8542 59.7775 43.903 59.7225C43.9518 59.6674 43.9918 59.6093 43.9918 59.5934C43.9918 59.5775 44.0288 59.5173 44.074 59.4597C44.1192 59.4021 44.1912 59.3191 44.234 59.2751C44.2769 59.2312 44.324 59.157 44.3389 59.1101C44.3538 59.0633 44.4009 58.9887 44.4438 58.9443C44.4866 58.8999 44.5487 58.8304 44.5819 58.7898C44.615 58.7492 44.6519 58.6855 44.6638 58.6482C44.6758 58.6109 44.7227 58.5365 44.768 58.4829C44.8134 58.4294 44.8777 58.3529 44.911 58.3129C44.9443 58.273 44.9996 58.1812 45.0339 58.1089C45.0682 58.0366 45.1109 57.9775 45.1287 57.9775C45.1465 57.9775 45.161 57.9564 45.161 57.9308C45.161 57.905 45.1933 57.8608 45.2328 57.8323C45.2722 57.8039 45.3146 57.7345 45.327 57.6781C45.3394 57.6217 45.3647 57.5756 45.3832 57.5756C45.4017 57.5756 45.4168 57.5593 45.4168 57.5394C45.4168 57.5196 45.4456 57.4685 45.4808 57.4258C45.5159 57.3831 45.5631 57.3287 45.5855 57.3049C45.608 57.2811 45.639 57.2213 45.6544 57.172C45.6698 57.1227 45.6936 57.0741 45.7073 57.0641C45.721 57.054 45.7823 56.9718 45.8435 56.8814C45.9048 56.7909 45.9665 56.6799 45.9806 56.6347C45.9948 56.5895 46.0217 56.5525 46.0404 56.5525C46.0592 56.5525 46.0745 56.5354 46.0745 56.5145C46.0745 56.4935 46.1085 56.4401 46.1501 56.3957C46.1917 56.3514 46.2348 56.2698 46.246 56.2146C46.2572 56.1593 46.2807 56.1141 46.2983 56.1141C46.3159 56.1141 46.3303 56.097 46.3303 56.076C46.3303 56.0551 46.3643 56.0017 46.4059 55.9573C46.4474 55.9129 46.4906 55.8314 46.5018 55.7761C46.513 55.7208 46.5365 55.6756 46.5541 55.6756C46.5717 55.6756 46.5861 55.6585 46.5861 55.6376C46.5861 55.6166 46.6201 55.5632 46.6617 55.5188C46.7032 55.4745 46.7464 55.3929 46.7576 55.3377C46.7688 55.2824 46.7923 55.2372 46.8099 55.2372C46.8274 55.2372 46.8418 55.2125 46.8418 55.1824C46.8418 55.1522 46.8583 55.1276 46.8784 55.1276C46.8985 55.1276 46.9149 55.1029 46.9149 55.0728C46.9149 55.0426 46.9296 55.018 46.9475 55.018C46.9654 55.018 46.9908 54.9751 47.004 54.9227C47.0171 54.8703 47.0847 54.7431 47.1541 54.64C47.2235 54.537 47.2803 54.4236 47.2803 54.3882C47.2803 54.3528 47.2967 54.3238 47.3168 54.3238C47.3369 54.3238 47.3534 54.2991 47.3534 54.269C47.3534 54.2388 47.3691 54.2141 47.3883 54.2141C47.4075 54.2141 47.4339 54.1566 47.4471 54.0863C47.4603 54.0159 47.4858 53.9584 47.5036 53.9584C47.5215 53.9584 47.5361 53.9337 47.5361 53.9036C47.5361 53.8734 47.5525 53.8488 47.5726 53.8488C47.5927 53.8488 47.6092 53.8241 47.6092 53.794C47.6092 53.7638 47.6256 53.7392 47.6457 53.7392C47.6658 53.7392 47.6822 53.7228 47.6822 53.7029C47.6822 53.6829 47.7108 53.6007 47.7457 53.5202C47.7806 53.4397 47.8217 53.3738 47.837 53.3738C47.8524 53.3738 47.8649 53.3575 47.8649 53.3375C47.8649 53.3176 47.8935 53.2353 47.9284 53.1548C47.9633 53.0743 48.0036 53.0084 48.0181 53.0084C48.0325 53.0084 48.0551 52.9509 48.0683 52.8805C48.0815 52.8102 48.1069 52.7527 48.1248 52.7527C48.1426 52.7527 48.1572 52.728 48.1572 52.6978C48.1572 52.6677 48.173 52.643 48.1921 52.643C48.2113 52.643 48.2378 52.5855 48.251 52.5152C48.2642 52.4448 48.2856 52.3873 48.2985 52.3873C48.3115 52.3873 48.3449 52.3338 48.3727 52.2685C48.4006 52.2032 48.4516 52.084 48.4861 52.0036C48.5206 51.9233 48.5716 51.804 48.5994 51.7387C48.6273 51.6734 48.6618 51.62 48.6761 51.62C48.6903 51.62 48.7128 51.5625 48.726 51.4921C48.7392 51.4218 48.7628 51.3642 48.7785 51.3642C48.7942 51.3642 48.8179 51.319 48.8313 51.2638C48.8447 51.2085 48.8751 51.1181 48.899 51.0628C48.9229 51.0075 48.953 50.9623 48.966 50.9623C48.9789 50.9623 49.0003 50.9048 49.0135 50.8344C49.0267 50.7641 49.0519 50.7066 49.0695 50.7066C49.087 50.7066 49.1125 50.6561 49.1261 50.5945C49.1396 50.5329 49.1737 50.4383 49.2018 50.3844C49.23 50.3305 49.253 50.2576 49.2532 50.2224C49.2533 50.1873 49.2685 50.1585 49.2871 50.1585C49.3056 50.1585 49.3318 50.1081 49.3453 50.0464C49.3588 49.9848 49.3929 49.8902 49.4211 49.8364C49.4492 49.7824 49.4723 49.7096 49.4724 49.6744C49.4725 49.6392 49.4878 49.6104 49.5063 49.6104C49.5248 49.6104 49.551 49.56 49.5645 49.4984C49.5781 49.4367 49.6122 49.3422 49.6403 49.2883C49.6684 49.2344 49.6915 49.1615 49.6917 49.1263C49.6918 49.0911 49.7052 49.0624 49.7215 49.0624C49.7378 49.0624 49.7727 48.9781 49.7992 48.8751C49.8255 48.7721 49.8697 48.6447 49.8972 48.5919C49.9247 48.5392 49.9473 48.4706 49.9474 48.4394C49.9475 48.4083 49.9617 48.3672 49.9788 48.3481C49.9959 48.329 50.0314 48.2312 50.0576 48.1307C50.0837 48.0302 50.1178 47.9313 50.1333 47.911C50.1488 47.8906 50.1815 47.792 50.206 47.6918C50.2305 47.5915 50.2634 47.4929 50.2791 47.4725C50.2948 47.4522 50.3277 47.3535 50.3521 47.2533C50.3766 47.1531 50.4082 47.0547 50.4223 47.0346C50.4363 47.0145 50.4694 46.9158 50.4957 46.8153C50.5221 46.7149 50.5549 46.6162 50.5688 46.5961C50.5826 46.576 50.622 46.4527 50.6563 46.3221C50.6906 46.1915 50.7338 46.0517 50.7523 46.0115C50.7708 45.9713 50.828 45.7658 50.8794 45.5548C50.9308 45.3438 50.9881 45.1383 51.0067 45.0981C51.0254 45.0579 51.0982 44.7866 51.1684 44.4952C51.2386 44.2038 51.378 43.6037 51.4781 43.1616C51.5783 42.7195 51.6854 42.2263 51.7162 42.0655C51.747 41.9047 51.8043 41.6006 51.8436 41.3896C51.8829 41.1786 51.9341 40.8744 51.9573 40.7136C51.9806 40.5528 52.0157 40.3391 52.0355 40.2386C52.0553 40.1381 52.0952 39.8669 52.1242 39.6358C52.1532 39.4047 52.2179 38.8621 52.2679 38.43C52.3179 37.998 52.3834 37.3156 52.4133 36.9137C52.4433 36.5118 52.4844 35.7802 52.5046 35.2878C52.5249 34.7955 52.5415 34.0063 52.5415 33.534C52.5415 33.0618 52.5249 32.2726 52.5046 31.7802C52.4844 31.2879 52.4434 30.5562 52.4135 30.1543C52.3837 29.7524 52.3183 29.0701 52.2683 28.638C52.2183 28.206 52.1535 27.6634 52.1244 27.4323C52.0952 27.2012 52.0553 26.9299 52.0355 26.8294C52.0157 26.729 51.9806 26.5152 51.9573 26.3545C51.9341 26.1937 51.8846 25.8977 51.8472 25.6968C51.8099 25.4958 51.7514 25.1834 51.7171 25.0026C51.6828 24.8217 51.5662 24.2874 51.4579 23.8151C51.3496 23.3429 51.2114 22.751 51.1507 22.4998C51.0899 22.2486 51.0251 22.0102 51.0066 21.97C50.988 21.9298 50.9308 21.7243 50.8794 21.5133C50.828 21.3023 50.7708 21.0967 50.7523 21.0565C50.7338 21.0164 50.6906 20.8766 50.6563 20.746C50.622 20.6154 50.5824 20.492 50.5684 20.4719C50.5543 20.4518 50.5228 20.3534 50.4983 20.2532C50.4738 20.153 50.4409 20.0544 50.4252 20.034C50.4095 20.0136 50.3766 19.915 50.3521 19.8147C50.3277 19.7146 50.2948 19.6159 50.2791 19.5955C50.2634 19.5752 50.2305 19.4765 50.206 19.3763C50.1815 19.2761 50.1484 19.1775 50.1324 19.1571C50.1165 19.1367 50.0831 19.0337 50.0584 18.9281C50.0336 18.8226 49.9986 18.7271 49.9805 18.7159C49.9625 18.7047 49.9475 18.6678 49.9474 18.6338C49.9473 18.5998 49.9247 18.5289 49.8972 18.4761C49.8697 18.4234 49.8255 18.296 49.7992 18.193C49.7727 18.09 49.7378 18.0057 49.7215 18.0057C49.7052 18.0057 49.6918 17.9769 49.6917 17.9417C49.6915 17.9066 49.6684 17.8337 49.6403 17.7798C49.6122 17.7259 49.5781 17.6313 49.5645 17.5697C49.551 17.508 49.5248 17.4576 49.5063 17.4576C49.4878 17.4576 49.4725 17.4288 49.4724 17.3937C49.4723 17.3585 49.4492 17.2856 49.4211 17.2317C49.3929 17.1778 49.3588 17.0833 49.3453 17.0216C49.3318 16.96 49.3056 16.9096 49.2871 16.9096C49.2685 16.9096 49.2533 16.8808 49.2532 16.8456C49.253 16.8105 49.23 16.7376 49.2018 16.6836C49.1737 16.6298 49.1396 16.5352 49.1261 16.4736C49.1125 16.4119 49.0881 16.3615 49.0719 16.3615C49.0556 16.3615 49.0315 16.304 49.0183 16.2336C49.0051 16.1633 48.9827 16.1057 48.9684 16.1057C48.9541 16.1057 48.9229 16.0605 48.899 16.0053C48.8751 15.95 48.8447 15.8596 48.8313 15.8043C48.8179 15.7491 48.7942 15.7038 48.7785 15.7038C48.7628 15.7038 48.7392 15.6463 48.726 15.5759C48.7128 15.5056 48.6903 15.4481 48.6761 15.4481C48.6618 15.4481 48.6274 15.3946 48.5997 15.3293C48.572 15.264 48.5253 15.153 48.4959 15.0827C48.4665 15.0124 48.4153 14.8934 48.3821 14.8182C48.3488 14.7431 48.3112 14.6814 48.2983 14.6812C48.2855 14.681 48.2642 14.6232 48.251 14.5529C48.2378 14.4826 48.2113 14.425 48.1921 14.425C48.173 14.425 48.1572 14.4004 48.1572 14.3702C48.1572 14.3401 48.1426 14.3154 48.1248 14.3154C48.1069 14.3154 48.0815 14.2579 48.0683 14.1875C48.0551 14.1172 48.0325 14.0596 48.0181 14.0596C48.0036 14.0596 47.9633 13.9938 47.9284 13.9132C47.8935 13.8327 47.8649 13.7505 47.8649 13.7306C47.8649 13.7106 47.8524 13.6943 47.837 13.6943C47.8217 13.6943 47.7806 13.6284 47.7457 13.5479C47.7108 13.4673 47.6822 13.3851 47.6822 13.3652C47.6822 13.3452 47.6658 13.3289 47.6457 13.3289C47.6256 13.3289 47.6092 13.3042 47.6092 13.2741C47.6092 13.244 47.5927 13.2193 47.5726 13.2193C47.5525 13.2193 47.5361 13.1854 47.5361 13.1441C47.5361 13.1027 47.5214 13.0779 47.5036 13.0889C47.4856 13.1 47.4603 13.0516 47.4471 12.9815C47.4339 12.9113 47.4075 12.8539 47.3883 12.8539C47.3691 12.8539 47.3534 12.8293 47.3534 12.7991C47.3534 12.769 47.3369 12.7443 47.3168 12.7443C47.2967 12.7443 47.2803 12.7152 47.2803 12.6797C47.2803 12.6442 47.2392 12.5546 47.189 12.4807C47.1387 12.4068 47.0976 12.329 47.0976 12.3078C47.0976 12.2866 47.0825 12.2693 47.064 12.2693C47.0455 12.2693 47.0195 12.22 47.0063 12.1597C46.993 12.0994 46.9671 12.0501 46.9486 12.0501C46.93 12.0501 46.9149 12.0254 46.9149 11.9953C46.9149 11.9651 46.8985 11.9405 46.8784 11.9405C46.8583 11.9405 46.8418 11.9066 46.8418 11.8653C46.8418 11.8239 46.8274 11.7989 46.8097 11.8099C46.7921 11.8208 46.7659 11.7765 46.7515 11.7115C46.7371 11.6465 46.7168 11.6155 46.7063 11.6426C46.6954 11.6708 46.6246 11.5772 46.5404 11.4233C46.4596 11.2757 46.2947 10.9823 46.1739 10.7713C46.0532 10.5603 45.8805 10.2726 45.7903 10.1319C45.7001 9.99122 45.5504 9.76129 45.4576 9.62095C45.3648 9.48057 45.1429 9.15996 44.9645 8.90847C44.7861 8.65695 44.5075 8.28675 44.3455 8.0858C44.1834 7.88484 43.8835 7.53135 43.6789 7.30025C43.4744 7.06915 43.0295 6.60878 42.6902 6.27717C42.351 5.94559 41.8762 5.50944 41.635 5.30801C41.3939 5.10655 41.0321 4.8175 40.8312 4.66569C40.6302 4.51391 40.2587 4.24774 40.0057 4.07422C39.7527 3.90071 39.2864 3.60267 38.9696 3.41187C38.6527 3.22111 38.0869 2.90993 37.7123 2.72037C37.3376 2.53081 36.8173 2.28152 36.5561 2.16635C36.2948 2.05119 35.8344 1.86247 35.533 1.74698C35.2315 1.63148 34.7218 1.45084 34.4003 1.34554C34.0787 1.24024 33.5279 1.07553 33.1762 0.97955C32.8245 0.88353 32.2737 0.746149 31.9522 0.674281C31.6306 0.602375 31.1411 0.501971 30.8643 0.451184C30.5876 0.40036 30.0778 0.317713 29.7316 0.267547C29.3854 0.217382 28.7733 0.142115 28.3713 0.10028C27.8058 0.0414544 27.3265 0.0213589 26.2521 0.0113477C25.4884 0.00425947 24.6621 0.0124073 24.4159 0.0295067Z" fill="#6928DF"/>
</svg>