<svg width="54" height="54" viewBox="0 0 54 54" fill="none" xmlns="http://www.w3.org/2000/svg">
<g id="carbon:settings">
<path id="Vector" d="M38.0276 27.7349V26.2554L39.8551 24.6308C40.192 24.3291 40.413 23.9162 40.4792 23.4649C40.5454 23.0137 40.4524 22.5532 40.2168 22.1649L37.9705 18.2968C37.8036 18.0031 37.5636 17.7591 37.2745 17.5894C36.9855 17.4196 36.6576 17.3301 36.3238 17.3298C36.1169 17.3282 35.9112 17.3608 35.7147 17.4265L33.4017 18.2194C33.0024 17.9498 32.5859 17.7075 32.1548 17.4942L31.6694 15.0573C31.5824 14.6121 31.344 14.2121 30.996 13.9275C30.6479 13.6429 30.2125 13.4917 29.7658 13.5004H25.3113C24.8646 13.4917 24.4291 13.6429 24.0811 13.9275C23.733 14.2121 23.4947 14.6121 23.4076 15.0573L22.9222 17.4942C22.4881 17.7075 22.0684 17.9498 21.6658 18.2194L19.4004 17.3878C19.2018 17.3352 18.9961 17.3156 18.7913 17.3298C18.4575 17.3301 18.1296 17.4196 17.8406 17.5894C17.5515 17.7591 17.3115 18.0031 17.1446 18.2968L14.8983 22.1649C14.6762 22.5526 14.5936 23.0068 14.6648 23.4496C14.736 23.8924 14.9565 24.2963 15.2886 24.5921L17.0875 26.2651V27.7446L15.2886 29.3692C14.9471 29.667 14.7206 30.0782 14.6491 30.5296C14.5777 30.981 14.666 31.4435 14.8983 31.8351L17.1446 35.7032C17.3115 35.9969 17.5515 36.2409 17.8406 36.4106C18.1296 36.5804 18.4575 36.6699 18.7913 36.6702C18.9982 36.6718 19.2039 36.6392 19.4004 36.5735L21.7134 35.7806C22.1127 36.0502 22.5292 36.2925 22.9603 36.5058L23.4457 38.9427C23.5327 39.388 23.7711 39.7879 24.1191 40.0725C24.4672 40.3571 24.9026 40.5083 25.3493 40.4996H29.8419C30.2886 40.5083 30.7241 40.3571 31.0721 40.0725C31.4201 39.7879 31.6585 39.388 31.7456 38.9427L32.231 36.5058C32.6651 36.2925 33.0848 36.0502 33.4874 35.7806L35.7908 36.5735C35.9873 36.6392 36.1931 36.6718 36.4 36.6702C36.7338 36.6699 37.0617 36.5804 37.3507 36.4106C37.6397 36.2409 37.8797 35.9969 38.0466 35.7032L40.2168 31.8351C40.4389 31.4474 40.5215 30.9932 40.4503 30.5504C40.3791 30.1076 40.1586 29.7037 39.8265 29.4079L38.0276 27.7349ZM36.3238 34.7362L33.0591 33.6144C32.2948 34.2721 31.4214 34.7862 30.4796 35.1327L29.8038 38.6043H25.3113L24.6355 35.1713C23.7012 34.8151 22.8324 34.3019 22.0655 33.6531L18.7913 34.7362L16.545 30.8681L19.1339 28.5472C18.9579 27.5462 18.9579 26.5215 19.1339 25.5205L16.545 23.1319L18.7913 19.2638L22.056 20.3856C22.8203 19.7279 23.6937 19.2138 24.6355 18.8673L25.3113 15.3957H29.8038L30.4796 18.8287C31.4139 19.1849 32.2827 19.6981 33.0496 20.3469L36.3238 19.2638L38.5701 23.1319L35.9812 25.4528C36.1572 26.4538 36.1572 27.4785 35.9812 28.4795L38.5701 30.8681L36.3238 34.7362Z" fill="black"/>
<path id="Vector_2" d="M27.5623 33.7497C26.3386 33.7497 25.1423 33.3538 24.1248 32.6121C23.1073 31.8704 22.3143 30.8162 21.846 29.5829C21.3777 28.3495 21.2552 26.9923 21.4939 25.683C21.7326 24.3737 22.3219 23.171 23.1872 22.227C24.0525 21.283 25.155 20.6401 26.3553 20.3797C27.5555 20.1193 28.7995 20.2529 29.9301 20.7638C31.0607 21.2747 32.0271 22.1398 32.7069 23.2498C33.3868 24.3598 33.7497 25.6648 33.7497 26.9998C33.758 27.8887 33.6036 28.7705 33.2956 29.5935C32.9875 30.4165 32.5321 31.1642 31.9559 31.7928C31.3797 32.4214 30.6943 32.9182 29.9399 33.2542C29.1855 33.5903 28.3772 33.7587 27.5623 33.7497ZM27.5623 22.4999C27.0172 22.4861 26.4751 22.593 25.9689 22.8143C25.4627 23.0355 25.0029 23.3664 24.6173 23.7871C24.2317 24.2077 23.9284 24.7093 23.7256 25.2615C23.5228 25.8138 23.4248 26.4051 23.4374 26.9998C23.4248 27.5946 23.5228 28.1859 23.7256 28.7381C23.9284 29.2903 24.2317 29.7919 24.6173 30.2126C25.0029 30.6332 25.4627 30.9642 25.9689 31.1854C26.4751 31.4066 27.0172 31.5136 27.5623 31.4997C28.1075 31.5136 28.6496 31.4066 29.1558 31.1854C29.662 30.9642 30.1218 30.6332 30.5074 30.2126C30.893 29.7919 31.1963 29.2903 31.3991 28.7381C31.6019 28.1859 31.6999 27.5946 31.6872 26.9998C31.6999 26.4051 31.6019 25.8138 31.3991 25.2615C31.1963 24.7093 30.893 24.2077 30.5074 23.7871C30.1218 23.3664 29.662 23.0355 29.1558 22.8143C28.6496 22.593 28.1075 22.4861 27.5623 22.4999Z" fill="black"/>
</g>
</svg>
